<mxfile host="app.diagrams.net" modified="2020-08-19T04:21:06.650Z" agent="5.0 (X11; Linux x86_64) AppleWebKit/537.36 (KHTML, like Gecko) Chrome/84.0.4147.105 Safari/537.36" etag="QzXDUgntHtzffix2Ydmu" version="13.6.3" type="github">
  <diagram id="_0m8lE8aYJ1XSh0JVQov" name="Page-1">
    <mxGraphModel dx="2889" dy="2281" grid="1" gridSize="10" guides="1" tooltips="1" connect="1" arrows="1" fold="1" page="1" pageScale="1" pageWidth="827" pageHeight="1169" math="0" shadow="0">
      <root>
        <mxCell id="0" />
        <mxCell id="1" parent="0" />
        <mxCell id="RiwfKk8Q5ZrXWtO4mKld-3" value="" style="group" vertex="1" connectable="0" parent="1">
          <mxGeometry x="-560" y="-1060" width="760" height="900" as="geometry" />
        </mxCell>
        <mxCell id="RiwfKk8Q5ZrXWtO4mKld-5" value="" style="verticalLabelPosition=bottom;verticalAlign=top;html=1;shape=mxgraph.basic.rect;fillColor2=none;strokeWidth=1;size=20;indent=5;" vertex="1" parent="RiwfKk8Q5ZrXWtO4mKld-3">
          <mxGeometry width="760" height="750" as="geometry" />
        </mxCell>
        <mxCell id="RiwfKk8Q5ZrXWtO4mKld-6" value="" style="line;strokeWidth=1;rotatable=0;dashed=0;labelPosition=right;align=left;verticalAlign=middle;spacingTop=0;spacingLeft=6;points=[];portConstraint=eastwest;" vertex="1" parent="RiwfKk8Q5ZrXWtO4mKld-3">
          <mxGeometry y="32.37545096240068" width="760" height="11.990907763852103" as="geometry" />
        </mxCell>
        <mxCell id="RiwfKk8Q5ZrXWtO4mKld-7" value="" style="line;strokeWidth=1;rotatable=0;dashed=0;labelPosition=right;align=left;verticalAlign=middle;spacingTop=0;spacingLeft=6;points=[];portConstraint=eastwest;" vertex="1" parent="RiwfKk8Q5ZrXWtO4mKld-3">
          <mxGeometry y="68.34817425395698" width="760" height="11.990907763852103" as="geometry" />
        </mxCell>
        <mxCell id="RiwfKk8Q5ZrXWtO4mKld-8" value="" style="line;strokeWidth=1;direction=south;html=1;" vertex="1" parent="RiwfKk8Q5ZrXWtO4mKld-3">
          <mxGeometry x="369" y="40.77" width="10" height="709.23" as="geometry" />
        </mxCell>
        <mxCell id="RiwfKk8Q5ZrXWtO4mKld-9" value="템플릿 관리 수정" style="text;strokeColor=none;fillColor=none;html=1;fontSize=16;fontStyle=0;verticalAlign=middle;align=center;" vertex="1" parent="RiwfKk8Q5ZrXWtO4mKld-3">
          <mxGeometry x="324" width="100" height="47.96363105540841" as="geometry" />
        </mxCell>
        <mxCell id="RiwfKk8Q5ZrXWtO4mKld-10" value="" style="shape=mxgraph.bpmn.shape;html=1;verticalLabelPosition=bottom;labelBackgroundColor=#ffffff;verticalAlign=top;align=center;perimeter=ellipsePerimeter;outlineConnect=0;outline=end;symbol=terminate;strokeWidth=1;fontSize=16;" vertex="1" parent="RiwfKk8Q5ZrXWtO4mKld-3">
          <mxGeometry x="545" y="460.04539257189316" width="50" height="59.95453881926052" as="geometry" />
        </mxCell>
        <mxCell id="RiwfKk8Q5ZrXWtO4mKld-11" value="" style="ellipse;whiteSpace=wrap;html=1;strokeWidth=1;fontSize=16;fillColor=#000000;" vertex="1" parent="RiwfKk8Q5ZrXWtO4mKld-3">
          <mxGeometry x="160" y="92.3299897816612" width="50" height="59.95453881926052" as="geometry" />
        </mxCell>
        <mxCell id="RiwfKk8Q5ZrXWtO4mKld-12" value="PM, PL" style="text;strokeColor=none;fillColor=none;html=1;fontSize=16;fontStyle=0;verticalAlign=middle;align=center;" vertex="1" parent="RiwfKk8Q5ZrXWtO4mKld-3">
          <mxGeometry x="135" y="34.7736325151711" width="100" height="47.96363105540841" as="geometry" />
        </mxCell>
        <mxCell id="RiwfKk8Q5ZrXWtO4mKld-13" value="시스템" style="text;strokeColor=none;fillColor=none;html=1;fontSize=16;fontStyle=0;verticalAlign=middle;align=center;" vertex="1" parent="RiwfKk8Q5ZrXWtO4mKld-3">
          <mxGeometry x="520" y="34.7736325151711" width="100" height="47.96363105540841" as="geometry" />
        </mxCell>
        <mxCell id="RiwfKk8Q5ZrXWtO4mKld-14" value="" style="edgeStyle=segmentEdgeStyle;endArrow=classic;html=1;fontSize=16;exitX=1;exitY=1;exitDx=0;exitDy=0;" edge="1" parent="RiwfKk8Q5ZrXWtO4mKld-3" source="RiwfKk8Q5ZrXWtO4mKld-11">
          <mxGeometry width="50" height="50" relative="1" as="geometry">
            <mxPoint x="360" y="236.22088294788642" as="sourcePoint" />
            <mxPoint x="570" y="200.24815965632996" as="targetPoint" />
            <Array as="points">
              <mxPoint x="203" y="122.30725919129145" />
              <mxPoint x="570" y="122.30725919129145" />
            </Array>
          </mxGeometry>
        </mxCell>
        <mxCell id="RiwfKk8Q5ZrXWtO4mKld-15" value="권한 없음" style="text;strokeColor=none;fillColor=none;html=1;fontSize=16;fontStyle=0;verticalAlign=middle;align=center;" vertex="1" parent="RiwfKk8Q5ZrXWtO4mKld-3">
          <mxGeometry x="580" y="382.03813046107643" width="100" height="47.96363105540841" as="geometry" />
        </mxCell>
        <mxCell id="RiwfKk8Q5ZrXWtO4mKld-16" value="수정 불가" style="text;strokeColor=none;fillColor=none;html=1;fontSize=16;fontStyle=0;verticalAlign=middle;align=center;" vertex="1" parent="RiwfKk8Q5ZrXWtO4mKld-3">
          <mxGeometry x="520" y="530.0008391550058" width="100" height="47.96363105540841" as="geometry" />
        </mxCell>
        <mxCell id="RiwfKk8Q5ZrXWtO4mKld-17" value="" style="rhombus;whiteSpace=wrap;html=1;strokeWidth=1;fontSize=16;fillColor=#FFFFFF;" vertex="1" parent="RiwfKk8Q5ZrXWtO4mKld-3">
          <mxGeometry x="545" y="305.9084415990657" width="50" height="59.95453881926052" as="geometry" />
        </mxCell>
        <mxCell id="RiwfKk8Q5ZrXWtO4mKld-18" value="" style="endArrow=classic;html=1;fontSize=16;exitX=0.5;exitY=1;exitDx=0;exitDy=0;entryX=0.5;entryY=0;entryDx=0;entryDy=0;" edge="1" parent="RiwfKk8Q5ZrXWtO4mKld-3" source="RiwfKk8Q5ZrXWtO4mKld-17" target="RiwfKk8Q5ZrXWtO4mKld-10">
          <mxGeometry width="50" height="50" relative="1" as="geometry">
            <mxPoint x="360" y="691.8753779742664" as="sourcePoint" />
            <mxPoint x="570" y="450" as="targetPoint" />
          </mxGeometry>
        </mxCell>
        <mxCell id="RiwfKk8Q5ZrXWtO4mKld-19" value="" style="endArrow=classic;html=1;fontSize=16;exitX=0.5;exitY=1;exitDx=0;exitDy=0;" edge="1" parent="RiwfKk8Q5ZrXWtO4mKld-3" target="RiwfKk8Q5ZrXWtO4mKld-17">
          <mxGeometry width="50" height="50" relative="1" as="geometry">
            <mxPoint x="569.5" y="248.21179071173856" as="sourcePoint" />
            <mxPoint x="570" y="356.1299605864075" as="targetPoint" />
          </mxGeometry>
        </mxCell>
        <mxCell id="RiwfKk8Q5ZrXWtO4mKld-20" value="" style="shape=mxgraph.bpmn.shape;html=1;verticalLabelPosition=bottom;labelBackgroundColor=#ffffff;verticalAlign=top;align=center;perimeter=ellipsePerimeter;outlineConnect=0;outline=end;symbol=terminate;strokeWidth=1;fontSize=16;" vertex="1" parent="RiwfKk8Q5ZrXWtO4mKld-3">
          <mxGeometry x="160" y="609.996405230121" width="50" height="59.95453881926052" as="geometry" />
        </mxCell>
        <mxCell id="RiwfKk8Q5ZrXWtO4mKld-21" value="권한 있음" style="text;strokeColor=none;fillColor=none;html=1;fontSize=16;fontStyle=0;verticalAlign=middle;align=center;" vertex="1" parent="RiwfKk8Q5ZrXWtO4mKld-3">
          <mxGeometry x="420" y="289.99563510103644" width="100" height="47.96363105540841" as="geometry" />
        </mxCell>
        <mxCell id="RiwfKk8Q5ZrXWtO4mKld-22" value="수정 완료" style="text;strokeColor=none;fillColor=none;html=1;fontSize=16;fontStyle=0;verticalAlign=middle;align=center;" vertex="1" parent="RiwfKk8Q5ZrXWtO4mKld-3">
          <mxGeometry x="135" y="680.0005859904488" width="100" height="47.96363105540841" as="geometry" />
        </mxCell>
        <mxCell id="RiwfKk8Q5ZrXWtO4mKld-25" value="권한 조회" style="strokeWidth=2;html=1;shape=mxgraph.flowchart.terminator;whiteSpace=wrap;" vertex="1" parent="RiwfKk8Q5ZrXWtO4mKld-3">
          <mxGeometry x="520" y="200.42194092827" width="100" height="52.74261603375526" as="geometry" />
        </mxCell>
        <mxCell id="RiwfKk8Q5ZrXWtO4mKld-31" value="산출물 수정" style="strokeWidth=2;html=1;shape=mxgraph.flowchart.terminator;whiteSpace=wrap;" vertex="1" parent="RiwfKk8Q5ZrXWtO4mKld-3">
          <mxGeometry x="135" y="307.91194092827004" width="100" height="52.74261603375526" as="geometry" />
        </mxCell>
        <mxCell id="RiwfKk8Q5ZrXWtO4mKld-32" value="" style="endArrow=classic;html=1;exitX=0;exitY=0.5;exitDx=0;exitDy=0;entryX=1;entryY=0.5;entryDx=0;entryDy=0;entryPerimeter=0;" edge="1" parent="RiwfKk8Q5ZrXWtO4mKld-3" source="RiwfKk8Q5ZrXWtO4mKld-17" target="RiwfKk8Q5ZrXWtO4mKld-31">
          <mxGeometry width="50" height="50" relative="1" as="geometry">
            <mxPoint x="490" y="430" as="sourcePoint" />
            <mxPoint x="540" y="380" as="targetPoint" />
          </mxGeometry>
        </mxCell>
        <mxCell id="RiwfKk8Q5ZrXWtO4mKld-33" value="" style="endArrow=classic;html=1;fontSize=16;exitX=0.5;exitY=1;exitDx=0;exitDy=0;" edge="1" parent="RiwfKk8Q5ZrXWtO4mKld-3" target="RiwfKk8Q5ZrXWtO4mKld-34">
          <mxGeometry width="50" height="50" relative="1" as="geometry">
            <mxPoint x="184.5" y="360.65298041832625" as="sourcePoint" />
            <mxPoint x="185" y="430" as="targetPoint" />
          </mxGeometry>
        </mxCell>
        <mxCell id="RiwfKk8Q5ZrXWtO4mKld-34" value="" style="rhombus;whiteSpace=wrap;html=1;strokeWidth=1;fontSize=16;fillColor=#FFFFFF;" vertex="1" parent="RiwfKk8Q5ZrXWtO4mKld-3">
          <mxGeometry x="160" y="460.0484415990658" width="50" height="59.95453881926052" as="geometry" />
        </mxCell>
        <mxCell id="RiwfKk8Q5ZrXWtO4mKld-36" value="다른 사용자 편집중" style="text;strokeColor=none;fillColor=none;html=1;fontSize=16;fontStyle=0;verticalAlign=middle;align=center;" vertex="1" parent="RiwfKk8Q5ZrXWtO4mKld-3">
          <mxGeometry x="235" y="439.99563510103644" width="100" height="47.96363105540841" as="geometry" />
        </mxCell>
        <mxCell id="RiwfKk8Q5ZrXWtO4mKld-38" value="" style="endArrow=classic;html=1;fontSize=16;exitX=0.5;exitY=1;exitDx=0;exitDy=0;entryX=0.5;entryY=0;entryDx=0;entryDy=0;" edge="1" parent="RiwfKk8Q5ZrXWtO4mKld-3" source="RiwfKk8Q5ZrXWtO4mKld-34" target="RiwfKk8Q5ZrXWtO4mKld-20">
          <mxGeometry width="50" height="50" relative="1" as="geometry">
            <mxPoint x="184.5" y="490.6329804183265" as="sourcePoint" />
            <mxPoint x="185" y="559.98" as="targetPoint" />
          </mxGeometry>
        </mxCell>
        <mxCell id="RiwfKk8Q5ZrXWtO4mKld-39" value="" style="endArrow=classic;html=1;exitX=1;exitY=0.5;exitDx=0;exitDy=0;" edge="1" parent="RiwfKk8Q5ZrXWtO4mKld-3" source="RiwfKk8Q5ZrXWtO4mKld-34" target="RiwfKk8Q5ZrXWtO4mKld-10">
          <mxGeometry width="50" height="50" relative="1" as="geometry">
            <mxPoint x="550" y="551.6057110086961" as="sourcePoint" />
            <mxPoint x="240" y="550.0032489451478" as="targetPoint" />
          </mxGeometry>
        </mxCell>
        <mxCell id="RiwfKk8Q5ZrXWtO4mKld-40" value="다른 사용자 미편집" style="text;strokeColor=none;fillColor=none;html=1;fontSize=16;fontStyle=0;verticalAlign=middle;align=center;" vertex="1" parent="RiwfKk8Q5ZrXWtO4mKld-3">
          <mxGeometry x="200" y="539.9956351010364" width="100" height="47.96363105540841" as="geometry" />
        </mxCell>
      </root>
    </mxGraphModel>
  </diagram>
</mxfile>
